<?xml version="1.0" encoding="utf-8"?>
<!-- Generator: Adobe Illustrator 19.2.1, SVG Export Plug-In . SVG Version: 6.00 Build 0)  -->
<svg version="1.1" id="Layer_1" xmlns="http://www.w3.org/2000/svg" xmlns:xlink="http://www.w3.org/1999/xlink" x="0px" y="0px"
	 viewBox="0 0 12 14" style="enable-background:new 0 0 12 14;" xml:space="preserve">
<style type="text/css">
	.st0{clip-path:url(#SVGID_2_);}
	.st1{clip-path:url(#SVGID_4_);fill:#02C7C6;}
</style>
<g>
	<defs>
		<path id="SVGID_1_" d="M5.7,14.2l6.1-6.6c0.2-0.2,0.2-0.6,0-0.8L5.7,0.2C5.6,0.1,5.4,0,5.3,0H0.6C0.4,0,0.2,0.1,0.1,0.4
			C-0.1,0.6,0,0.8,0.2,1L6,7.2l-5.9,6.2C0.1,13.5,0,13.7,0,13.8C0,13.9,0,14,0.1,14c0.1,0.2,0.3,0.4,0.6,0.4h4.7
			C5.4,14.4,5.6,14.3,5.7,14.2z"/>
	</defs>
	<clipPath id="SVGID_2_">
		<use xlink:href="#SVGID_1_"  style="overflow:visible;"/>
	</clipPath>
	<g class="st0">
		<defs>
			<rect id="SVGID_3_" x="-768.6" y="-874.8" width="1440" height="1187"/>
		</defs>
		<clipPath id="SVGID_4_">
			<use xlink:href="#SVGID_3_"  style="overflow:visible;"/>
		</clipPath>
		<rect x="-5" y="-5" class="st1" width="22" height="24.4"/>
	</g>
</g>
</svg>
