<?xml version="1.0" encoding="utf-8"?>
<!-- Generator: Adobe Illustrator 19.2.1, SVG Export Plug-In . SVG Version: 6.00 Build 0)  -->
<svg version="1.1" id="Layer_1" xmlns="http://www.w3.org/2000/svg" xmlns:xlink="http://www.w3.org/1999/xlink" x="0px" y="0px"
	 viewBox="0 0 18 18" style="enable-background:new 0 0 18 18;" xml:space="preserve">
<style type="text/css">
	.st0{clip-path:url(#SVGID_2_);}
	.st1{clip-path:url(#SVGID_4_);fill:#FFFFFF;}
</style>
<g>
	<defs>
		<path id="SVGID_1_" d="M12.5,8.8l4.7-4.7c0.4-0.4,0.5-1.1,0.2-1.4c-0.7-0.9-1.5-1.7-2.5-2.5c-0.4-0.3-1-0.3-1.4,0.2L8.8,4.9
			L4.1,0.4C3.7,0,3-0.1,2.6,0.2C1.7,0.9,0.9,1.7,0.2,2.7C-0.1,3,0,3.7,0.4,4.1l4.7,4.7l-4.8,4.8C0,14-0.1,14.6,0.2,15
			c0.7,0.9,1.5,1.7,2.4,2.4c0.4,0.3,1,0.3,1.4-0.1l4.8-4.8l4.7,4.8c0.4,0.4,1.1,0.5,1.4,0.1c0.9-0.7,1.7-1.5,2.5-2.5
			c0.3-0.4,0.3-1-0.2-1.4L12.5,8.8z"/>
	</defs>
	<clipPath id="SVGID_2_">
		<use xlink:href="#SVGID_1_"  style="overflow:visible;"/>
	</clipPath>
	<g class="st0">
		<defs>
			<rect id="SVGID_3_" x="-1031.2" y="-200.2" width="1440" height="1187"/>
		</defs>
		<clipPath id="SVGID_4_">
			<use xlink:href="#SVGID_3_"  style="overflow:visible;"/>
		</clipPath>
		<rect x="-5" y="-5" class="st1" width="27.6" height="27.6"/>
	</g>
</g>
</svg>
