<?xml version="1.0" encoding="utf-8"?>
<!-- Generator: Adobe Illustrator 19.2.1, SVG Export Plug-In . SVG Version: 6.00 Build 0)  -->
<svg version="1.1" id="Layer_1" xmlns="http://www.w3.org/2000/svg" xmlns:xlink="http://www.w3.org/1999/xlink" x="0px" y="0px"
	 viewBox="0 0 15 13" style="enable-background:new 0 0 15 13;" xml:space="preserve">
<style type="text/css">
	.st0{clip-path:url(#SVGID_2_);}
	.st1{clip-path:url(#SVGID_4_);fill:#083D8C;}
</style>
<g>
	<defs>
		<path id="SVGID_1_" d="M0.6,2.7C0.2,2.3,0.1,2,0,1.8V1c0-0.3,0.2-0.5,0.5-0.5C2.8,0.2,5.1,0,7.5,0s4.7,0.2,7,0.5
			c0.3,0,0.5,0.3,0.5,0.5v0.8c0,0.2-0.2,0.5-0.6,0.9L8.7,7C8.4,7.2,7.9,7.3,7.5,7.3C7,7.3,6.6,7.2,6.3,7L0.6,2.7z M9.7,8.4l5.3-4.1
			v7.4c0,0.3-0.2,0.5-0.5,0.5c-2.3,0.3-4.7,0.5-7,0.5s-4.7-0.2-7-0.5c-0.3,0-0.5-0.3-0.5-0.5V4.4l5.3,4.1c0.6,0.5,1.4,0.7,2.2,0.7
			S9,8.9,9.7,8.4z"/>
	</defs>
	<clipPath id="SVGID_2_">
		<use xlink:href="#SVGID_1_"  style="overflow:visible;"/>
	</clipPath>
	<g class="st0">
		<defs>
			<rect id="SVGID_3_" x="-213.5" y="-1164.6" width="1440" height="1699"/>
		</defs>
		<clipPath id="SVGID_4_">
			<use xlink:href="#SVGID_3_"  style="overflow:visible;"/>
		</clipPath>
		<rect x="-5" y="-5" class="st1" width="24.9" height="22.8"/>
	</g>
</g>
</svg>
