<?xml version="1.0" encoding="utf-8"?>
<!-- Generator: Adobe Illustrator 19.2.1, SVG Export Plug-In . SVG Version: 6.00 Build 0)  -->
<svg version="1.1" id="Layer_1" xmlns="http://www.w3.org/2000/svg" xmlns:xlink="http://www.w3.org/1999/xlink" x="0px" y="0px"
	 viewBox="0 0 12 16" style="enable-background:new 0 0 12 16;" xml:space="preserve">
<style type="text/css">
	.st0{clip-path:url(#SVGID_2_);}
	.st1{clip-path:url(#SVGID_4_);fill:#216DDF;}
</style>
<g>
	<defs>
		<path id="SVGID_1_" d="M6,8.9c1.6,0,2.9-1.3,2.9-2.9c0-1.6-1.3-2.9-2.9-2.9S3.2,4.5,3.2,6C3.2,7.6,4.5,8.9,6,8.9z M6,0
			c3.3,0,6,2.9,6,6.3c0,4.7-5.2,9.7-5.2,9.7c-0.7,0.7-1.2,0.6-1.8,0c0,0-5.1-4.9-5.1-9.7C0,2.9,2.7,0,6,0z"/>
	</defs>
	<clipPath id="SVGID_2_">
		<use xlink:href="#SVGID_1_"  style="overflow:visible;"/>
	</clipPath>
	<g class="st0">
		<defs>
			<rect id="SVGID_3_" x="-1212.4" y="-82.6" width="1440" height="1699"/>
		</defs>
		<clipPath id="SVGID_4_">
			<use xlink:href="#SVGID_3_"  style="overflow:visible;"/>
		</clipPath>
		<rect x="-5" y="-5" class="st1" width="22.1" height="26.5"/>
	</g>
</g>
</svg>
