<?xml version="1.0" encoding="utf-8"?>
<!-- Generator: Adobe Illustrator 19.2.1, SVG Export Plug-In . SVG Version: 6.00 Build 0)  -->
<svg version="1.1" id="Layer_1" xmlns="http://www.w3.org/2000/svg" xmlns:xlink="http://www.w3.org/1999/xlink" x="0px" y="0px"
	 viewBox="0 0 21 21" style="enable-background:new 0 0 21 21;" xml:space="preserve">
<style type="text/css">
	.st0{clip-path:url(#SVGID_2_);}
	.st1{clip-path:url(#SVGID_4_);fill:#36D4A2;}
</style>
<g>
	<defs>
		<path id="SVGID_1_" d="M8.3,14.8c-0.1,0-0.1,0-0.2,0c-0.1,0-0.1-0.1-0.2-0.1l-3.3-3.3c-0.1-0.1-0.2-0.2-0.2-0.4
			c0-0.2,0.1-0.3,0.2-0.4c0.1-0.1,0.2-0.2,0.4-0.2c0.2,0,0.3,0.1,0.4,0.2l2.9,2.9l7.3-7.3C15.7,6.1,15.8,6,16,6
			c0.2,0,0.3,0.1,0.4,0.2c0.1,0.1,0.2,0.2,0.2,0.4c0,0.2-0.1,0.3-0.2,0.4l-7.7,7.7c-0.1,0.1-0.1,0.1-0.2,0.1
			C8.4,14.8,8.3,14.8,8.3,14.8z M10.5,1.1C9.2,1.1,8,1.3,6.8,1.8c-1.1,0.5-2.1,1.2-3,2s-1.5,1.8-2,3C1.3,8,1.1,9.2,1.1,10.5
			c0,1.3,0.2,2.5,0.7,3.6s1.2,2.1,2,3s1.8,1.5,3,2s2.3,0.7,3.6,0.7s2.5-0.2,3.6-0.7s2.1-1.2,3-2c0.8-0.8,1.5-1.8,2-3
			s0.7-2.3,0.7-3.6c0-1.3-0.2-2.5-0.7-3.6c-0.5-1.1-1.2-2.1-2-3c-0.8-0.8-1.8-1.5-3-2C13,1.3,11.7,1.1,10.5,1.1z M10.5,20.9
			c-0.7,0-1.4-0.1-2.1-0.2s-1.3-0.3-1.9-0.6c-0.6-0.3-1.2-0.6-1.8-1s-1.1-0.8-1.6-1.3c-0.5-0.5-0.9-1-1.3-1.6
			c-0.4-0.6-0.7-1.2-1-1.8c-0.3-0.6-0.5-1.3-0.6-1.9S0,11.1,0,10.5c0-0.7,0.1-1.4,0.2-2.1c0.1-0.7,0.3-1.3,0.6-1.9
			c0.3-0.6,0.6-1.2,1-1.8c0.4-0.6,0.8-1.1,1.3-1.6c0.5-0.5,1-0.9,1.6-1.3s1.2-0.7,1.8-1c0.6-0.3,1.3-0.5,1.9-0.6S9.8,0,10.5,0
			c0.7,0,1.4,0.1,2.1,0.2s1.3,0.3,1.9,0.6c0.6,0.3,1.2,0.6,1.8,1c0.6,0.4,1.1,0.8,1.6,1.3c0.5,0.5,0.9,1,1.3,1.6s0.7,1.2,1,1.8
			c0.3,0.6,0.5,1.3,0.6,1.9c0.1,0.7,0.2,1.4,0.2,2.1c0,0.7-0.1,1.4-0.2,2.1c-0.1,0.7-0.3,1.3-0.6,1.9c-0.3,0.6-0.6,1.2-1,1.8
			s-0.8,1.1-1.3,1.6c-0.5,0.5-1,0.9-1.6,1.3c-0.6,0.4-1.2,0.7-1.8,1c-0.6,0.3-1.3,0.5-1.9,0.6S11.1,20.9,10.5,20.9z"/>
	</defs>
	<clipPath id="SVGID_2_">
		<use xlink:href="#SVGID_1_"  style="overflow:visible;"/>
	</clipPath>
	<g class="st0">
		<defs>
			<rect id="SVGID_3_" x="-999" y="-415.2" width="1440" height="1187"/>
		</defs>
		<clipPath id="SVGID_4_">
			<use xlink:href="#SVGID_3_"  style="overflow:visible;"/>
		</clipPath>
		<rect x="-5" y="-5" class="st1" width="30.9" height="30.9"/>
	</g>
</g>
</svg>
